<?xml version="1.0" encoding="UTF-8" standalone="no"?>
<svg
   id="Layer_1"
   data-name="Layer 1"
   viewBox="1 1 164 33"
   version="1.1"
   sodipodi:docname="remote-purchasing-background-challenger-left.svg"
   inkscape:version="1.1 (c4e8f9e, 2021-05-24)"
   width="164"
   height="33"
   xmlns:inkscape="http://www.inkscape.org/namespaces/inkscape"
   xmlns:sodipodi="http://sodipodi.sourceforge.net/DTD/sodipodi-0.dtd"
   xmlns="http://www.w3.org/2000/svg"
   xmlns:svg="http://www.w3.org/2000/svg"
   xmlns:rdf="http://www.w3.org/1999/02/22-rdf-syntax-ns#"
   xmlns:cc="http://creativecommons.org/ns#"
   xmlns:dc="http://purl.org/dc/elements/1.1/">
  <sodipodi:namedview
     id="namedview1075"
     pagecolor="#ffffff"
     bordercolor="#666666"
     borderopacity="1.0"
     inkscape:pageshadow="2"
     inkscape:pageopacity="0.0"
     inkscape:pagecheckerboard="0"
     showgrid="false"
     inkscape:zoom="7.3181818"
     inkscape:cx="59.440994"
     inkscape:cy="16.534162"
     inkscape:window-width="2509"
     inkscape:window-height="1092"
     inkscape:window-x="51"
     inkscape:window-y="384"
     inkscape:window-maximized="0"
     inkscape:current-layer="Layer_1" />
  <defs
     id="defs1058">
    <style
       id="style1056">.cls-1{fill:#ededed;}.cls-2{fill:#161615;}.cls-3{fill:#219fe4;}</style>
  </defs>
  <title
     id="title1060">LEFT.BLUE.GOOD</title>
  <rect
     class="cls-1"
     x="-96.098076"
     y="0.47230142"
     width="1400"
     height="33.945354"
     id="rect1062"
     style="stroke-width:0.991213" />
  <polygon
     class="cls-2"
     points="158.74,0.07 1072.36,0.07 1066.34,34.61 152.72,34.61 "
     id="polygon1064"
     transform="matrix(1,0,0,0.9824999,9.2919255,0.40352401)" />
  <path
     style="fill:#363636;fill-opacity:1;stroke-width:0.135444"
     d="m 204.3292,34.200091 c 0,-0.04305 0.11937,-0.541496 0.26528,-1.107596 1.76609,-6.852274 0.91548,-14.523978 -2.32323,-20.953345 -2.09019,-4.1493608 -5.1532,-7.8610861 -8.6404,-10.4703485 -0.72957,-0.5458987 -1.3265,-1.01408909 -1.3265,-1.04042369 0,-0.026335 16.78696,-0.047891 37.30435,-0.047891 h 37.30435 V 17.429464 34.278404 h -31.29193 c -17.21056,0 -31.29192,-0.0352 -31.29192,-0.07832 z"
     id="path3571" />
  <path
     style="fill:#363636;fill-opacity:1;stroke-width:0.135444"
     d=""
     id="path3649" />
  <metadata
     id="metadata3864">
    <rdf:RDF>
      <cc:Work
         rdf:about="">
        <dc:title>LEFT.BLUE.GOOD</dc:title>
      </cc:Work>
    </rdf:RDF>
  </metadata>
  <g
     id="Shape_Left"
     transform="matrix(1,0,0,0.93241887,66.145835,-3.0170148)"
     style="fill:none;fill-rule:evenodd;stroke:none;stroke-width:1">
    <path
       d="M 23.4749,16.000044 C 17.249,16.000044 11.2781,18.5286 6.8756,23.0295 2.4732,27.5303 0,33.6348 0,40 h 47 c 0,-3.156 -0.6088,-6.2811 -1.7917,-9.1962 -1.1829,-2.9152 -2.9165,-5.5632 -5.1017,-7.7925 -2.1851,-2.2292 -4.7789,-3.996 -7.6328,-5.1991 -2.8539,-1.2031 -5.9119,-1.8189 -8.9989,-1.812156 z"
       id="path294"
       fill="#219fe4"
       fill-rule="nonzero" />
    <path
       d="M 65.98,5.000004 C 56.7009,5.0052997 47.8037,8.6951197 41.2442,15.2583 34.6847,21.8215 31,30.7209 31,40.000004 h 70 C 101,35.4021 100.094,30.8492 98.334,26.6015 96.574,22.3538 93.994,18.4945 90.742,15.2442 87.49,11.9939 83.6288,9.4162297 79.3801,7.6584897 75.1314,5.9007497 70.578,4.9973797 65.98,5.000004 Z"
       id="path296"
       fill="#219fe4"
       fill-rule="nonzero" />
    <path
       d="M 143.00013,30.736 C 142.992,23.5724 140.534,16.636 136.047,11.1228 131.561,5.6095497 125.329,1.8650797 118.424,0.53503669 111.52,-0.79500731 104.377,0.37274169 98.227,3.8369297 92.077,7.3011097 87.306,12.8446 84.7349,19.5115 76.1087,16.8449 66.8274,17.4505 58.6049,21.2163 50.3824,24.9822 43.774,31.6541 40,40 h 101.625 c 0.921,-2.998 1.384,-6.1225 1.37513,-9.264 z"
       id="path298"
       fill="#363636"
       fill-rule="nonzero" />
  </g>
  <circle
     id="Oval"
     cx="32.192547"
     cy="34.47826"
     r="16"
     style="fill:#219fe4;fill-rule:evenodd;stroke:none;stroke-width:1" />
</svg>
