<?xml version="1.0" encoding="UTF-8" standalone="no"?>
<svg
   width="376"
   height="48.765999"
   viewBox="0 0 376 48.765999"
   version="1.1"
   id="svg30"
   sodipodi:docname="remote-purchasing-background-challenger.svg"
   inkscape:version="1.1 (c4e8f9e, 2021-05-24)"
   xmlns:inkscape="http://www.inkscape.org/namespaces/inkscape"
   xmlns:sodipodi="http://sodipodi.sourceforge.net/DTD/sodipodi-0.dtd"
   xmlns:xlink="http://www.w3.org/1999/xlink"
   xmlns="http://www.w3.org/2000/svg"
   xmlns:svg="http://www.w3.org/2000/svg"
   xmlns:rdf="http://www.w3.org/1999/02/22-rdf-syntax-ns#"
   xmlns:cc="http://creativecommons.org/ns#"
   xmlns:dc="http://purl.org/dc/elements/1.1/">
  <sodipodi:namedview
     id="namedview32"
     pagecolor="#ffffff"
     bordercolor="#666666"
     borderopacity="1.0"
     inkscape:pageshadow="2"
     inkscape:pageopacity="0.0"
     inkscape:pagecheckerboard="0"
     showgrid="false"
     inkscape:zoom="2.9973404"
     inkscape:cx="88.244898"
     inkscape:cy="24.021295"
     inkscape:window-width="2560"
     inkscape:window-height="1484"
     inkscape:window-x="0"
     inkscape:window-y="25"
     inkscape:window-maximized="1"
     inkscape:current-layer="svg30"
     height="48.766px" />
  <title
     id="title2">Option_3.3 Copy 2</title>
  <defs
     id="defs5">
    <rect
       id="path-1"
       x="0"
       y="0"
       width="869"
       height="40" />
  </defs>
  <g
     id="Option_3.3-Copy-2"
     stroke="none"
     stroke-width="1"
     fill="none"
     fill-rule="evenodd"
     transform="matrix(1.206374,0,0,1.2396204,-87.886348,0.02316391)">
    <g
       id="Group-3"
       transform="translate(-277)">
      <mask
         id="mask-2"
         fill="#ffffff">
        <use
           xlink:href="#path-1"
           id="use7"
           x="0"
           y="0"
           width="100%"
           height="100%" />
      </mask>
      <use
         id="Mask"
         fill="#ededed"
         xlink:href="#path-1"
         x="0"
         y="0"
         width="100%"
         height="100%" />
      <g
         mask="url(#mask-2)"
         id="g18">
        <g
           transform="translate(132)"
           id="g16">
          <g
             id="Background_Shape_Center">
            <polygon
               id="Path"
               fill="#363636"
               fill-rule="nonzero"
               points="416,40 416,0 0,0 0,40 " />
          </g>
          <g
             id="Background_Shapes_Left"
             transform="translate(14)">
            <path
               d="M 143.00013,30.736 C 142.992,23.5724 140.534,16.636 136.047,11.1228 131.561,5.6095497 125.329,1.8650797 118.424,0.53503669 111.52,-0.79500731 104.377,0.37274169 98.227,3.8369297 92.077,7.3011097 87.306,12.8446 84.7349,19.5115 76.1087,16.8449 66.8274,17.4505 58.6049,21.2163 50.3824,24.9822 43.774,31.6541 40,40 h 101.625 c 0.921,-2.998 1.384,-6.1225 1.37513,-9.264 z"
               id="path13"
               fill="#363636"
               fill-rule="nonzero" />
          </g>
        </g>
      </g>
    </g>
    <g
       id="g27"
       transform="matrix(-1,0,0,1,385.00013,1e-6)"
       fill-rule="nonzero">
      <path
         d="M 23.4749,16.000044 C 17.249,16.000044 11.2781,18.5286 6.8756,23.0295 2.4732,27.5303 0,33.6348 0,40 h 47 c 0,-3.156 -0.6088,-6.2811 -1.7917,-9.1962 -1.1829,-2.9152 -2.9165,-5.5632 -5.1017,-7.7925 -2.1851,-2.2292 -4.7789,-3.996 -7.6328,-5.1991 -2.8539,-1.2031 -5.9119,-1.8189 -8.9989,-1.812156 z"
         id="path21"
         fill="#219fe4" />
      <path
         d="M 65.98,5.000004 C 56.7009,5.0052997 47.8037,8.6951197 41.2442,15.2583 34.6847,21.8215 31,30.7209 31,40.000004 h 70 C 101,35.4021 100.094,30.8492 98.334,26.6015 96.574,22.3538 93.994,18.4945 90.742,15.2442 87.49,11.9939 83.6288,9.4162297 79.3801,7.6584897 75.1314,5.9007497 70.578,4.9973797 65.98,5.000004 Z"
         id="path23"
         fill="#219fe4" />
      <path
         d="M 143.00013,30.736 C 142.992,23.5724 140.534,16.636 136.047,11.1228 131.561,5.6095497 125.329,1.8650797 118.424,0.53503669 111.52,-0.79500731 104.377,0.37274169 98.227,3.8369297 92.077,7.3011097 87.306,12.8446 84.7349,19.5115 76.1087,16.8449 66.8274,17.4505 58.6049,21.2163 50.3824,24.9822 43.774,31.6541 40,40 h 101.625 c 0.921,-2.998 1.384,-6.1225 1.37513,-9.264 z"
         id="path25"
         fill="#363636" />
    </g>
  </g>
  <metadata
     id="metadata69">
    <rdf:RDF>
      <cc:Work
         rdf:about="">
        <dc:title>Option_3.3 Copy 2</dc:title>
      </cc:Work>
    </rdf:RDF>
  </metadata>
</svg>
