<svg viewBox="0 0 24 24" class="icon _133u1t1 icon-fill-default" style="width:16px;height:16px;stroke-width:1.5"
  fill="white" xmlns="http://www.w3.org/2000/svg"
  xmlns:xlink="http://www.w3.org/1999/xlink">
  <path
    d="M19.51 2.11h-15a2.77 2.77 0 00-2.79 2.77v15a2.77 2.77 0 002.77 2.77h7.4v-7.33H10a.45.45 0 01-.45-.45v-2.36a.45.45 0 01.45-.45h1.9V9.77a3.74 3.74 0 014-4.1h1.94a.45.45 0 01.45.45v2a.45.45 0 01-.45.45h-1.2c-1.29 0-1.54.61-1.54 1.51v2h2.83a.45.45 0 01.45.5l-.28 2.37a.45.45 0 01-.45.4h-2.54v7.34h4.41a2.77 2.77 0 002.77-2.77v-15a2.77 2.77 0 00-2.77-2.77zm0 0">
  </path>
</svg>