<svg viewBox="0 0 24 24" class="icon _133u1t1 icon-fill-default" style="width:16px;height:16px;stroke-width:1.5" xmlns="http://www.w3.org/2000/svg"
  xmlns:xlink="http://www.w3.org/1999/xlink" fill="white">
  <path
    d="M12 6.37A5.63 5.63 0 1017.63 12 5.63 5.63 0 0012 6.37zm0 9.07A3.44 3.44 0 1115.44 12 3.44 3.44 0 0112 15.44zm0 0M19 6.41a1.35 1.35 0 11-1.35-1.35A1.35 1.35 0 0119 6.41zm0 0">
  </path>
  <path
    d="M7.6 22.88h8.8a6.49 6.49 0 006.48-6.48V7.6a6.49 6.49 0 00-6.48-6.48H7.6A6.49 6.49 0 001.12 7.6v8.8a6.49 6.49 0 006.48 6.48zM3.31 7.6A4.29 4.29 0 017.6 3.31h8.8a4.29 4.29 0 014.29 4.29v8.8a4.29 4.29 0 01-4.29 4.29H7.6a4.29 4.29 0 01-4.29-4.29z">
  </path>
</svg>