<svg viewBox="0 0 24 24" class="icon _133u1t1 icon-fill-default" style="width:16px;height:16px;stroke-width:1.5" xmlns="http://www.w3.org/2000/svg"
  xmlns:xlink="http://www.w3.org/1999/xlink" fill="white">
  <path
    d="M18.68.92H3.32a2.4 2.4 0 00-2.4 2.4v15.36a2.4 2.4 0 002.4 2.4h15.36a2.4 2.4 0 002.4-2.4V3.32a2.4 2.4 0 00-2.4-2.4zM7.16 8.6v9.12H4.28V8.6h2.88zM4.28 5.946c0-.672.576-1.186 1.44-1.186s1.406.514 1.44 1.186c0 .672-.538 1.214-1.44 1.214-.864 0-1.44-.542-1.44-1.214zM17.72 17.72h-2.88v-4.8c0-.96-.48-1.92-1.68-1.94h-.039c-1.161 0-1.641.99-1.641 1.94v4.8H8.6V8.6h2.88v1.229S12.406 8.6 14.269 8.6c1.905 0 3.45 1.31 3.45 3.965v5.155z">
  </path>
</svg>