<svg viewBox="0 0 24 24" class="icon _133u1t1 icon-fill-default" style="width:16px;height:16px;stroke-width:1.5" xmlns="http://www.w3.org/2000/svg"
  xmlns:xlink="http://www.w3.org/1999/xlink" fill="white">
  <path
    d="M23.21 4.61a9.16 9.16 0 01-1.6.54 5 5 0 001.31-2.09.26.26 0 00-.38-.3 9.21 9.21 0 01-2.44 1h-.15a.65.65 0 01-.43-.16 5 5 0 00-3.3-1.25 5.34 5.34 0 00-1.58.24 4.84 4.84 0 00-3.26 3.51 5.33 5.33 0 00-.12 1.84.18.18 0 010 .14.19.19 0 01-.14.06 13.1 13.1 0 01-9-4.81.26.26 0 00-.43 0A5 5 0 002.5 9.4 4.47 4.47 0 011.31 9a.26.26 0 00-.39.23 5 5 0 002.92 4.61h-.11a4.47 4.47 0 01-.84-.08.26.26 0 00-.3.34 5 5 0 004 3.4 9.22 9.22 0 01-5.16 1.57H.8a.38.38 0 00-.37.29.4.4 0 00.19.44 13.71 13.71 0 006.89 1.86 13.89 13.89 0 005.89-1.25 13 13 0 004.31-3.23 14.15 14.15 0 002.64-4.42 14 14 0 00.9-4.83v-.1a.85.85 0 01.32-.66 9.87 9.87 0 002-2.18.26.26 0 00-.32-.38zm0 0">
  </path>
</svg>